<?xml version="1.0" encoding="UTF-8"?>
<svg version="1.1" xmlns="http://www.w3.org/2000/svg" width="1024" height="1024">
<path d="M0 0 C0.99 0.495 0.99 0.495 2 1 C16.52 1 31.04 1 46 1 C46 70.3 46 139.6 46 211 C30.82 211 15.64 211 0 211 C-1.125 200.875 -1.125 200.875 -1 197 C-1.42667969 197.42410156 -1.85335937 197.84820313 -2.29296875 198.28515625 C-15.97273116 211.11874779 -31.73589596 214.86613922 -49.984375 214.3515625 C-65.81694985 213.509662 -81.05076896 207.47002255 -93 197 C-93 196.34 -93 195.68 -93 195 C-93.55945313 194.79117188 -94.11890625 194.58234375 -94.6953125 194.3671875 C-97.81103216 192.51887923 -99.72792555 189.97430379 -101.875 187.125 C-102.31408691 186.54347168 -102.75317383 185.96194336 -103.20556641 185.36279297 C-116.31387265 167.56156824 -119.95512015 145.7933871 -117.57421875 124.125 C-115.09212358 109.75016665 -109.23087427 97.25761313 -100 86 C-99.44699219 85.28457031 -98.89398437 84.56914062 -98.32421875 83.83203125 C-87.59478536 70.59308838 -71.95408881 63.63879587 -55.625 60.3125 C-37.65595632 58.76344451 -22.38064575 61.59469902 -7 71 C-4.546875 73.25390625 -4.546875 73.25390625 -3 75 C-2.34 74.67 -1.68 74.34 -1 74 C-1.00523682 72.89527344 -1.01047363 71.79054688 -1.01586914 70.65234375 C-1.11759363 47.07829494 -0.95219313 23.55665015 0 0 Z M-63 112 C-69.79665662 121.46107366 -70.85659019 133.8105201 -69.53125 145.12109375 C-67.72523617 154.90809517 -63.99882165 162.45157043 -55.98046875 168.53125 C-47.2424044 174.27865753 -37.69347571 175.90902304 -27.375 174.375 C-18.10126335 172.36986775 -10.86712957 167.43346733 -5 160 C1.23239318 149.0482802 1.65072472 135.77071808 -0.6484375 123.5546875 C-3.86278765 113.91163704 -9.69770384 106.96838161 -18.609375 102.15234375 C-34.56316896 94.46219797 -51.65063884 99.03222813 -63 112 Z " fill="#C509C2" transform="translate(614,392)"/>
<path d="M0 0 C0.99 0.495 0.99 0.495 2 1 C2 15.52 2 30.04 2 45 C-24.4 44.67 -50.8 44.34 -78 44 C-77.67 59.18 -77.34 74.36 -77 90 C-71.95847656 89.91621094 -66.91695312 89.83242188 -61.72265625 89.74609375 C-58.53711602 89.69540621 -55.3515767 89.64501596 -52.16601562 89.59570312 C-47.10484643 89.51732713 -42.04371185 89.43782456 -36.98266602 89.35180664 C-32.90437755 89.28256036 -28.82603906 89.21820518 -24.74761772 89.15730476 C-23.18819797 89.13314686 -21.62880494 89.10719798 -20.06944466 89.07946587 C-17.89277455 89.04105521 -15.71609819 89.00889638 -13.53930664 88.97827148 C-12.29798477 88.95828598 -11.0566629 88.93830048 -9.77772522 88.91770935 C-7 89 -7 89 -6 90 C-5.91126468 93.10230144 -5.88474313 96.18287359 -5.90234375 99.28515625 C-5.90335083 100.1097937 -5.90435791 100.93443115 -5.90539551 101.78405762 C-5.91064408 104.87688581 -5.92460523 107.96969424 -5.9375 111.0625 C-5.958125 117.971875 -5.97875 124.88125 -6 132 C-29.76 131.67 -53.52 131.34 -78 131 C-78 157.4 -78 183.8 -78 211 C-93.84 211 -109.68 211 -126 211 C-127.25410768 207.23767696 -127.13465147 203.73714164 -127.12025452 199.81867981 C-127.12110894 198.97490475 -127.12196337 198.13112969 -127.12284368 197.26178569 C-127.12449553 194.4242583 -127.11898191 191.58678955 -127.11352539 188.74926758 C-127.11324343 186.71929424 -127.11340143 184.68932081 -127.1139679 182.65934753 C-127.11425552 177.13903119 -127.1083644 171.61873646 -127.10139394 166.09842515 C-127.09515462 160.33284505 -127.09455614 154.56726448 -127.09336853 148.80168152 C-127.09025693 137.87949232 -127.08204583 126.9573131 -127.07201904 116.0351283 C-127.05876582 101.27896814 -127.05335662 86.52280527 -127.04751682 71.76664066 C-127.03810584 48.5110863 -127.01818577 25.25555299 -127 2 C-85.09 2 -43.18 2 0 2 C0 1.34 0 0.68 0 0 Z " fill="#08CDFE" transform="translate(239,392)"/>
<path d="M0 0 C0.81984375 0.59296875 1.6396875 1.1859375 2.484375 1.796875 C5.4758869 4.41677051 7.53237041 7.34765239 9.625 10.6875 C10.21474609 11.61743774 10.21474609 11.61743774 10.81640625 12.56616211 C13.66187537 17.17507958 15.81638114 21.68428316 17 27 C17.25731478 28.15518773 17.25731478 28.15518773 17.51982784 29.33371258 C17.97063728 31.83695543 18.12326524 34.08740099 18.12025452 36.6254425 C18.12231651 37.97360298 18.12231651 37.97360298 18.12442017 39.34899902 C18.12082489 40.32220093 18.11722961 41.29540283 18.11352539 42.2980957 C18.11367142 43.33270432 18.11381744 44.36731293 18.1139679 45.43327332 C18.11327214 48.84746407 18.10549544 52.26160004 18.09765625 55.67578125 C18.09579088 58.04518097 18.09436754 60.41458108 18.09336853 62.78398132 C18.08955276 69.01629707 18.07973047 75.24858947 18.06866455 81.480896 C18.05843024 87.84207849 18.05386658 94.20326477 18.04882812 100.56445312 C18.03810738 113.04298065 18.02051816 125.52148473 18 138 C3.15 138 -11.7 138 -27 138 C-27.04898438 132.4828125 -27.09796875 126.965625 -27.1484375 121.28125 C-27.18388682 117.7538896 -27.21988255 114.22655123 -27.2578125 110.69921875 C-27.31776284 105.11933815 -27.37585705 99.53948783 -27.421875 93.95947266 C-27.45916732 89.4530114 -27.50563603 84.94672409 -27.55806351 80.44041443 C-27.57637721 78.73436075 -27.59156673 77.02827013 -27.60334396 75.32215881 C-26.88448517 52.72795138 -26.88448517 52.72795138 -36.484375 33.48828125 C-42.76449262 27.83941257 -49.81120202 26.9287045 -58 27 C-64.38049381 27.97822488 -68.96152211 29.7737345 -73 35 C-77.4174694 41.68630572 -78.1510258 46.91581777 -78.20532227 54.80761719 C-78.21522186 55.69577621 -78.22512146 56.58393524 -78.23532104 57.49900818 C-78.26688188 60.43160343 -78.2916721 63.36421488 -78.31640625 66.296875 C-78.33698045 68.33140481 -78.35797705 70.36593039 -78.37937927 72.40045166 C-78.43455179 77.7532 -78.48398235 83.1059866 -78.53222656 88.45880127 C-78.58247676 93.92178754 -78.63814446 99.3847183 -78.69335938 104.84765625 C-78.80088201 115.56505673 -78.9023401 126.28250543 -79 137 C-82.77706996 137.57597584 -86.45892947 138.12640091 -90.28295898 138.11352539 C-91.04321884 138.11344986 -91.8034787 138.11337433 -92.58677673 138.11329651 C-93.38185135 138.10813522 -94.17692596 138.10297394 -94.99609375 138.09765625 C-95.82963882 138.0962413 -96.6631839 138.09482635 -97.52198792 138.09336853 C-100.16052986 138.08781168 -102.79898409 138.0752674 -105.4375 138.0625 C-107.23632689 138.05747942 -109.03515513 138.05291749 -110.83398438 138.04882812 C-115.22268958 138.03785643 -119.61132996 138.02062196 -124 138 C-125.33337615 135.3332477 -125.12714049 133.3094416 -125.12939453 130.32202148 C-125.13250641 129.11372177 -125.13561829 127.90542206 -125.13882446 126.6605072 C-125.13701445 125.31403578 -125.13500365 123.96756461 -125.1328125 122.62109375 C-125.13382971 121.20801264 -125.13517007 119.79493172 -125.1368103 118.3818512 C-125.13953687 114.53614824 -125.1349946 110.690485 -125.12857056 106.8447876 C-125.12501008 104.44429402 -125.12338253 102.04380643 -125.12231445 99.64331055 C-125.10237671 63.42412407 -124.58952597 27.21373793 -124 -9 C-109.15 -9 -94.3 -9 -79 -9 C-78.505 -3.06 -78.505 -3.06 -78 3 C-76.9275 1.96875 -75.855 0.9375 -74.75 -0.125 C-53.9918912 -18.30217165 -20.88693297 -16.97538007 0 0 Z " fill="#CD0AC3" transform="translate(458,465)"/>
<path d="M0 0 C15.18 0 30.36 0 46 0 C45.67 0.66 45.34 1.32 45 2 C44.84266751 4.98763355 44.74138585 7.95541151 44.68359375 10.9453125 C44.66281265 11.8303244 44.64203156 12.7153363 44.62062073 13.62716675 C44.55513402 16.45969741 44.49624438 19.29232225 44.4375 22.125 C44.39431394 24.04297857 44.35069963 25.96094754 44.30664062 27.87890625 C44.19864599 32.5858423 44.09956622 37.29284783 44 42 C55.22 42 66.44 42 78 42 C78 54.87 78 67.74 78 81 C66.78 81 55.56 81 44 81 C44.09731321 87.65315019 44.20028034 94.3057318 44.31738281 100.95849609 C44.35549144 103.21820882 44.39037475 105.47797846 44.421875 107.73779297 C44.46792123 110.99988042 44.52584814 114.26158204 44.5859375 117.5234375 C44.59748871 118.52176605 44.60903992 119.5200946 44.62094116 120.54867554 C44.8191373 130.12688319 45.51366241 139.46280325 52 147 C56.9484934 150.65245941 62.97195848 151.17854566 69 151 C71.92212035 150.27979137 74.25922994 149.29281607 77 148 C79.3940233 152.78804661 78.31224297 160.04324416 78.35009766 165.36694336 C78.36668321 167.07899545 78.39400769 168.79097757 78.43212891 170.50268555 C78.48678561 172.96960386 78.50874951 175.4349023 78.5234375 177.90234375 C78.54610687 178.66804184 78.56877625 179.43373993 78.59213257 180.22264099 C78.58349609 182.38647461 78.58349609 182.38647461 78 186 C75.61132812 187.94677734 75.61132812 187.94677734 73 189 C72.23945312 189.31324219 71.47890625 189.62648438 70.6953125 189.94921875 C53.82973065 194.793588 35.03590484 193.65594809 19.625 185.25 C9.49508499 178.68279416 3.69996083 168.62970142 1 157 C0.60798957 153.29597951 0.48375846 149.59698794 0.375 145.875 C0.33777832 144.75150146 0.30055664 143.62800293 0.26220703 142.47045898 C-0.08225662 130.33724266 -0.10644099 118.19985134 -0.125 106.0625 C-0.12767883 105.05048523 -0.13035767 104.03847046 -0.13311768 102.99578857 C-0.13894662 100.09220763 -0.13725715 97.18873774 -0.1328125 94.28515625 C-0.13478638 93.40707809 -0.13676025 92.52899994 -0.13879395 91.62431335 C-0.13414124 90.40274284 -0.13414124 90.40274284 -0.12939453 89.15649414 C-0.12859894 88.44739395 -0.12780334 87.73829376 -0.12698364 87.00770569 C0 85 0 85 1 81 C-4.94 81.33 -10.88 81.66 -17 82 C-17 68.8 -17 55.6 -17 42 C-11.06 42 -5.12 42 1 42 C0.835 39.710625 0.67 37.42125 0.5 35.0625 C-0.25868314 23.38186655 -0.06393464 11.70003994 0 0 Z " fill="#5E02B3" transform="translate(840,414)"/>
<path d="M0 0 C15.84 0 31.68 0 48 0 C47.34 0.33 46.68 0.66 46 1 C46.02978156 1.99995499 46.05956312 2.99990997 46.09024715 4.03016663 C46.82101358 28.95121826 47.14263933 53.84687448 47.10139394 78.77791595 C47.09496644 83.35145396 47.09454181 87.92499333 47.09336853 92.49853516 C47.09031051 101.08558148 47.08217514 109.67261445 47.07201904 118.259655 C47.06068174 128.06692377 47.05530397 137.87419332 47.05032361 147.68146706 C47.03998505 167.78765204 47.02249781 187.89382517 47 208 C44.67782321 209.1610884 43.33438469 209.12673847 40.74975586 209.12939453 C39.87222153 209.13254669 38.99468719 209.13569885 38.09056091 209.13894653 C36.66708092 209.13591019 36.66708092 209.13591019 35.21484375 209.1328125 C34.24341934 209.13376923 33.27199493 209.13472595 32.27113342 209.13571167 C30.21582983 209.13639283 28.16052408 209.13454299 26.10522461 209.13037109 C22.94705411 209.1250162 19.78902546 209.13032122 16.63085938 209.13671875 C14.63802052 209.13605807 12.64518175 209.13477712 10.65234375 209.1328125 C9.70133286 209.13483673 8.75032196 209.13686096 7.77049255 209.13894653 C6.89611038 209.13579437 6.02172821 209.13264221 5.12084961 209.12939453 C4.34744736 209.12859894 3.5740451 209.12780334 2.77720642 209.12698364 C1 209 1 209 0 208 C-0.09783696 205.31930668 -0.12993911 202.66438877 -0.12025452 199.98326111 C-0.12110894 199.13302779 -0.12196337 198.28279448 -0.12284368 197.40679651 C-0.1245011 194.5354183 -0.11897286 191.66409751 -0.11352539 188.79272461 C-0.11324355 186.7433421 -0.11340119 184.69395948 -0.1139679 182.64457703 C-0.11425599 177.06216088 -0.10835736 171.47976602 -0.10139394 165.89735484 C-0.09516236 160.07037001 -0.09455676 154.24338474 -0.09336853 148.41639709 C-0.09025464 137.37372706 -0.08204047 126.33106687 -0.07201904 115.28840119 C-0.06085971 102.72029921 -0.05534791 90.15219677 -0.05032361 77.58409107 C-0.0398579 51.72272065 -0.0215117 25.86136375 0 0 Z " fill="#6602B4" transform="translate(752,394)"/>
<path d="M0 0 C0.76166977 0.00222061 1.52333954 0.00444122 2.30809021 0.00672913 C3.16890701 0.00680466 4.02972382 0.00688019 4.91662598 0.00695801 C5.8520372 0.01211929 6.78744843 0.01728058 7.75120544 0.02259827 C8.70422043 0.02401321 9.65723541 0.02542816 10.63912964 0.02688599 C13.69605085 0.032503 16.75289996 0.04505836 19.80979919 0.05775452 C21.87685543 0.06276733 23.94391281 0.06733061 26.01097107 0.07142639 C31.08977507 0.08247795 36.16852489 0.09975397 41.24729919 0.12025452 C42.58485609 2.79536831 42.37015948 4.8309297 42.36755371 7.82756042 C42.36892838 9.04194794 42.37030304 10.25633545 42.37171936 11.50752258 C42.36818 12.86036707 42.36454518 14.2132113 42.36082458 15.5660553 C42.36054263 16.98505145 42.36070061 18.40404775 42.36126709 19.82304382 C42.36155475 23.68231915 42.35566311 27.54156357 42.34869313 31.4008317 C42.34245435 35.43139904 42.34185538 39.46196703 42.34066772 43.49253845 C42.33755596 51.12816125 42.32934465 58.76376978 42.31931823 66.39938629 C42.3081523 75.09092193 42.30264543 83.78245824 42.2976228 92.47399926 C42.28716192 110.35609244 42.26956546 128.23817233 42.24729919 146.12025452 C39.91402479 147.28689172 38.66493822 147.21019239 36.07298279 147.14198303 C35.21224152 147.12188675 34.35150024 147.10179047 33.4646759 147.08108521 C32.53442596 147.05405014 31.60417603 147.02701508 30.64573669 146.99916077 C29.69413666 146.97554977 28.74253662 146.95193878 27.76210022 146.9276123 C24.7153514 146.85088819 21.66885118 146.76690149 18.62229919 146.68275452 C16.55981146 146.62954259 14.4973115 146.57680214 12.43479919 146.52455139 C7.37214103 146.39526119 2.30969414 146.25945617 -2.75270081 146.12025452 C-2.77602863 127.23187571 -2.79367941 108.34349981 -2.80451298 89.4551096 C-2.80967618 80.68552736 -2.81671935 71.91595406 -2.82814026 63.14637756 C-2.83808635 55.50562549 -2.84455405 47.86487988 -2.8467893 40.22412151 C-2.84809654 36.17587066 -2.85118319 32.12763832 -2.85843086 28.07939339 C-2.8651899 24.27344583 -2.86731801 20.4675245 -2.86580849 16.6615715 C-2.86608487 15.2606778 -2.86809069 13.85978327 -2.87190628 12.45889473 C-2.87684163 10.55435944 -2.8750988 8.64981025 -2.87295532 6.74526978 C-2.87387712 5.67691171 -2.87479891 4.60855364 -2.87574863 3.50782108 C-2.70452955 0.18556042 -2.70452955 0.18556042 0 0 Z " fill="#06C7FE" transform="translate(266.75270080566406,455.87974548339844)"/>
<path d="M0 0 C5.07816149 4.27379622 8.06787181 10.2207981 9.046875 16.72265625 C9.57516978 23.45841469 8.56136029 30.24655902 4.53515625 35.8125 C-0.52210609 41.1879721 -6.3426428 44.09319279 -13.78125 44.78515625 C-20.77352441 44.58393972 -28.06485025 41.79294123 -32.953125 36.72265625 C-37.67205232 29.50039554 -39.20104036 21.78536316 -37.45703125 13.3125 C-35.95702348 8.2362025 -34.09794242 5.17667077 -29.953125 1.72265625 C-29.19 1.00078125 -28.426875 0.27890625 -27.640625 -0.46484375 C-19.15352149 -6.18870426 -8.50451825 -5.17207404 0 0 Z " fill="#0CCDFB" transform="translate(300.953125,397.27734375)"/>
<path d="M0 0 C0.99 0.495 0.99 0.495 2 1 C2 15.52 2 30.04 2 45 C-24.4 44.67 -50.8 44.34 -78 44 C-77.67 59.18 -77.34 74.36 -77 90 C-71.95847656 89.91621094 -66.91695312 89.83242188 -61.72265625 89.74609375 C-58.53711602 89.69540621 -55.3515767 89.64501596 -52.16601562 89.59570312 C-47.10484643 89.51732713 -42.04371185 89.43782456 -36.98266602 89.35180664 C-32.90437755 89.28256036 -28.82603906 89.21820518 -24.74761772 89.15730476 C-23.18819797 89.13314686 -21.62880494 89.10719798 -20.06944466 89.07946587 C-17.89277455 89.04105521 -15.71609819 89.00889638 -13.53930664 88.97827148 C-12.29798477 88.95828598 -11.0566629 88.93830048 -9.77772522 88.91770935 C-7 89 -7 89 -6 90 C-5.91126468 93.10230144 -5.88474313 96.18287359 -5.90234375 99.28515625 C-5.90335083 100.1097937 -5.90435791 100.93443115 -5.90539551 101.78405762 C-5.91064408 104.87688581 -5.92460523 107.96969424 -5.9375 111.0625 C-5.958125 117.971875 -5.97875 124.88125 -6 132 C-29.76 131.67 -53.52 131.34 -78 131 C-78 157.4 -78 183.8 -78 211 C-93.84 211 -109.68 211 -126 211 C-127.25410768 207.23767696 -127.13465147 203.73714164 -127.12025452 199.81867981 C-127.12110894 198.97490475 -127.12196337 198.13112969 -127.12284368 197.26178569 C-127.12449553 194.4242583 -127.11898191 191.58678955 -127.11352539 188.74926758 C-127.11324343 186.71929424 -127.11340143 184.68932081 -127.1139679 182.65934753 C-127.11425552 177.13903119 -127.1083644 171.61873646 -127.10139394 166.09842515 C-127.09515462 160.33284505 -127.09455614 154.56726448 -127.09336853 148.80168152 C-127.09025693 137.87949232 -127.08204583 126.9573131 -127.07201904 116.0351283 C-127.05876582 101.27896814 -127.05335662 86.52280527 -127.04751682 71.76664066 C-127.03810584 48.5110863 -127.01818577 25.25555299 -127 2 C-85.09 2 -43.18 2 0 2 C0 1.34 0 0.68 0 0 Z M-125 3 C-125 70.98 -125 138.96 -125 209 C-109.82 209 -94.64 209 -79 209 C-79.33 182.93 -79.66 156.86 -80 130 C-56.24 130 -32.48 130 -8 130 C-8 117.13 -8 104.26 -8 91 C-31.43 91 -54.86 91 -79 91 C-79 75.16 -79 59.32 -79 43 C-52.93 43 -26.86 43 0 43 C0 29.8 0 16.6 0 3 C-41.25 3 -82.5 3 -125 3 Z " fill="#0D9EDC" transform="translate(239,392)"/>
<path d="M0 0 C0.99 0.495 0.99 0.495 2 1 C16.52 1 31.04 1 46 1 C46 70.3 46 139.6 46 211 C30.82 211 15.64 211 0 211 C-1.125 200.875 -1.125 200.875 -1 197 C-1.42667969 197.42410156 -1.85335937 197.84820313 -2.29296875 198.28515625 C-15.97273116 211.11874779 -31.73589596 214.86613922 -49.984375 214.3515625 C-65.81694985 213.509662 -81.05076896 207.47002255 -93 197 C-93 196.34 -93 195.68 -93 195 C-89.8587838 196.44924293 -87.26114105 198.23704231 -84.5 200.3125 C-73.30899997 208.23533188 -61.56452673 211.44882625 -48 211 C-48 211.33 -48 211.66 -48 212 C-36.87258158 212.69225875 -24.67580422 210.82205779 -15 205 C-12.22877725 202.64573501 -12.22877725 202.64573501 -10 200 C-4.11850312 193.97505198 -4.11850312 193.97505198 -1 192 C-0.01 192 0.98 192 2 192 C2.495 199.425 2.495 199.425 3 207 C16.2 207.33 29.4 207.66 43 208 C42.67 205.36 42.34 202.72 42 200 C41.92130265 197.95428839 41.88190492 195.90659467 41.88647461 193.859375 C41.88655014 192.71879639 41.88662567 191.57821777 41.88670349 190.40307617 C41.89186478 189.19756104 41.89702606 187.9920459 41.90234375 186.75 C41.90446617 184.86921753 41.90446617 184.86921753 41.90663147 182.95043945 C41.91125919 179.64282033 41.92021897 176.33525137 41.93133545 173.02764893 C41.94162824 169.64213673 41.94614583 166.25661714 41.95117188 162.87109375 C41.96216553 156.24737646 41.97887707 149.62369232 42 143 C42.33 143 42.66 143 43 143 C43.00423194 142.29062853 43.00846388 141.58125706 43.01282406 140.85038948 C43.11602344 123.60846361 43.22464499 106.3665805 43.33933926 89.12472725 C43.39467254 80.78677916 43.4481547 72.4488268 43.49731445 64.11083984 C43.54015501 56.84544143 43.58643267 49.58007454 43.63687855 42.3147248 C43.66348053 38.46599241 43.68833363 34.61726628 43.70907402 30.76849747 C43.72863404 27.14883199 43.75277588 23.52922651 43.78049088 19.90961456 C43.79434739 17.94193034 43.80329294 15.97421347 43.81211853 14.00650024 C43.82190735 12.84259766 43.83169617 11.67869507 43.84178162 10.47952271 C43.84823417 9.46370684 43.85468672 8.44789097 43.8613348 7.4012928 C44 5 44 5 45 3 C30.48 3 15.96 3 1 3 C1 27.75 1 52.5 1 78 C-1.21096427 73.57807146 -1.27346243 70.34004942 -1.23046875 65.546875 C-1.23037308 64.70589264 -1.2302774 63.86491028 -1.23017883 62.9984436 C-1.22644759 60.24881919 -1.20749197 57.49955056 -1.1875 54.75 C-1.1806403 52.85888795 -1.1741323 50.9677746 -1.16796875 49.07666016 C-1.09211489 32.70739724 -0.66111133 16.35547221 0 0 Z " fill="#920A99" transform="translate(614,392)"/>
<path d="M0 0 C15.84 0 31.68 0 48 0 C47.34 0.33 46.68 0.66 46 1 C46.02978156 1.99995499 46.05956312 2.99990997 46.09024715 4.03016663 C46.82101358 28.95121826 47.14263933 53.84687448 47.10139394 78.77791595 C47.09496644 83.35145396 47.09454181 87.92499333 47.09336853 92.49853516 C47.09031051 101.08558148 47.08217514 109.67261445 47.07201904 118.259655 C47.06068174 128.06692377 47.05530397 137.87419332 47.05032361 147.68146706 C47.03998505 167.78765204 47.02249781 187.89382517 47 208 C44.67782321 209.1610884 43.33438469 209.12673847 40.74975586 209.12939453 C39.87222153 209.13254669 38.99468719 209.13569885 38.09056091 209.13894653 C36.66708092 209.13591019 36.66708092 209.13591019 35.21484375 209.1328125 C34.24341934 209.13376923 33.27199493 209.13472595 32.27113342 209.13571167 C30.21582983 209.13639283 28.16052408 209.13454299 26.10522461 209.13037109 C22.94705411 209.1250162 19.78902546 209.13032122 16.63085938 209.13671875 C14.63802052 209.13605807 12.64518175 209.13477712 10.65234375 209.1328125 C9.70133286 209.13483673 8.75032196 209.13686096 7.77049255 209.13894653 C6.89611038 209.13579437 6.02172821 209.13264221 5.12084961 209.12939453 C4.34744736 209.12859894 3.5740451 209.12780334 2.77720642 209.12698364 C1 209 1 209 0 208 C-0.09783696 205.31930668 -0.12993911 202.66438877 -0.12025452 199.98326111 C-0.12110894 199.13302779 -0.12196337 198.28279448 -0.12284368 197.40679651 C-0.1245011 194.5354183 -0.11897286 191.66409751 -0.11352539 188.79272461 C-0.11324355 186.7433421 -0.11340119 184.69395948 -0.1139679 182.64457703 C-0.11425599 177.06216088 -0.10835736 171.47976602 -0.10139394 165.89735484 C-0.09516236 160.07037001 -0.09455676 154.24338474 -0.09336853 148.41639709 C-0.09025464 137.37372706 -0.08204047 126.33106687 -0.07201904 115.28840119 C-0.06085971 102.72029921 -0.05534791 90.15219677 -0.05032361 77.58409107 C-0.0398579 51.72272065 -0.0215117 25.86136375 0 0 Z M2 1 C2 68.98 2 136.96 2 207 C16.19 207 30.38 207 45 207 C45 139.02 45 71.04 45 1 C30.81 1 16.62 1 2 1 Z " fill="#440474" transform="translate(752,394)"/>
<path d="M0 0 C0 13.86 0 27.72 0 42 C-23.76 41.67 -47.52 41.34 -72 41 C-72 67.4 -72 93.8 -72 121 C-87.84 121 -103.68 121 -120 121 C-121.01139443 117.96581671 -121.12671788 115.92687415 -121.12939453 112.75341797 C-121.13254669 111.68155243 -121.13569885 110.60968689 -121.13894653 109.50534058 C-121.1369223 108.34600006 -121.13489807 107.18665955 -121.1328125 105.9921875 C-121.13376923 104.79699493 -121.13472595 103.60180237 -121.13571167 102.37039185 C-121.13639292 99.83677111 -121.13454245 97.30314864 -121.13037109 94.76953125 C-121.12505023 90.91141777 -121.13030337 87.05342221 -121.13671875 83.1953125 C-121.13605741 80.73177058 -121.13477509 78.26822873 -121.1328125 75.8046875 C-121.13483673 74.65749237 -121.13686096 73.51029724 -121.13894653 72.32833862 C-121.1210479 66.13466877 -120.81615182 60.14099536 -120 54 C-119.67 54 -119.34 54 -119 54 C-119 75.45 -119 96.9 -119 119 C-96.725 118.505 -96.725 118.505 -74 118 C-74 92.26 -74 66.52 -74 40 C-50.24 40 -26.48 40 -2 40 C-2 27.13 -2 14.26 -2 1 C-25.43 1 -48.86 1 -73 1 C-73 0.67 -73 0.34 -73 0 C-63.77738043 -0.15368759 -54.55469383 -0.30186924 -45.33187294 -0.4429636 C-41.04964977 -0.50864904 -36.76747457 -0.57625231 -32.48535156 -0.64819336 C-28.35518776 -0.71751163 -24.22497401 -0.78185116 -20.09467697 -0.84269524 C-18.51654606 -0.86682655 -16.93844184 -0.89277148 -15.36037064 -0.92053413 C-13.15516586 -0.95902419 -10.94995549 -0.99114551 -8.74462891 -1.02172852 C-7.48776276 -1.04171402 -6.23089661 -1.06169952 -4.9359436 -1.08229065 C-2 -1 -2 -1 0 0 Z " fill="#0798DD" transform="translate(233,482)"/>
<path d="M0 0 C0.76166977 0.00222061 1.52333954 0.00444122 2.30809021 0.00672913 C3.16890701 0.00680466 4.02972382 0.00688019 4.91662598 0.00695801 C5.8520372 0.01211929 6.78744843 0.01728058 7.75120544 0.02259827 C8.70422043 0.02401321 9.65723541 0.02542816 10.63912964 0.02688599 C13.69605085 0.032503 16.75289996 0.04505836 19.80979919 0.05775452 C21.87685543 0.06276733 23.94391281 0.06733061 26.01097107 0.07142639 C31.08977507 0.08247795 36.16852489 0.09975397 41.24729919 0.12025452 C42.58485609 2.79536831 42.37015948 4.8309297 42.36755371 7.82756042 C42.36892838 9.04194794 42.37030304 10.25633545 42.37171936 11.50752258 C42.36818 12.86036707 42.36454518 14.2132113 42.36082458 15.5660553 C42.36054263 16.98505145 42.36070061 18.40404775 42.36126709 19.82304382 C42.36155475 23.68231915 42.35566311 27.54156357 42.34869313 31.4008317 C42.34245435 35.43139904 42.34185538 39.46196703 42.34066772 43.49253845 C42.33755596 51.12816125 42.32934465 58.76376978 42.31931823 66.39938629 C42.3081523 75.09092193 42.30264543 83.78245824 42.2976228 92.47399926 C42.28716192 110.35609244 42.26956546 128.23817233 42.24729919 146.12025452 C39.91402479 147.28689172 38.66493822 147.21019239 36.07298279 147.14198303 C35.21224152 147.12188675 34.35150024 147.10179047 33.4646759 147.08108521 C32.53442596 147.05405014 31.60417603 147.02701508 30.64573669 146.99916077 C29.69413666 146.97554977 28.74253662 146.95193878 27.76210022 146.9276123 C24.7153514 146.85088819 21.66885118 146.76690149 18.62229919 146.68275452 C16.55981146 146.62954259 14.4973115 146.57680214 12.43479919 146.52455139 C7.37214103 146.39526119 2.30969414 146.25945617 -2.75270081 146.12025452 C-2.77602863 127.23187571 -2.79367941 108.34349981 -2.80451298 89.4551096 C-2.80967618 80.68552736 -2.81671935 71.91595406 -2.82814026 63.14637756 C-2.83808635 55.50562549 -2.84455405 47.86487988 -2.8467893 40.22412151 C-2.84809654 36.17587066 -2.85118319 32.12763832 -2.85843086 28.07939339 C-2.8651899 24.27344583 -2.86731801 20.4675245 -2.86580849 16.6615715 C-2.86608487 15.2606778 -2.86809069 13.85978327 -2.87190628 12.45889473 C-2.87684163 10.55435944 -2.8750988 8.64981025 -2.87295532 6.74526978 C-2.87387712 5.67691171 -2.87479891 4.60855364 -2.87574863 3.50782108 C-2.70452955 0.18556042 -2.70452955 0.18556042 0 0 Z M-0.75270081 2.12025452 C-0.75270081 49.31025452 -0.75270081 96.50025452 -0.75270081 145.12025452 C12.77729919 145.12025452 26.30729919 145.12025452 40.24729919 145.12025452 C40.24729919 97.93025452 40.24729919 50.74025452 40.24729919 2.12025452 C26.71729919 2.12025452 13.18729919 2.12025452 -0.75270081 2.12025452 Z " fill="#0C9EE5" transform="translate(266.75270080566406,455.87974548339844)"/>
<path d="M0 0 C0.33 0 0.66 0 1 0 C1 45.21 1 90.42 1 137 C14.86 137 28.72 137 43 137 C42.97679687 130.89628906 42.95359375 124.79257812 42.9296875 118.50390625 C42.91946248 114.62564676 42.9098341 110.74740401 42.90234375 106.86914062 C42.89041121 100.72009813 42.87632958 94.57111549 42.84912109 88.42211914 C42.82731147 83.46192203 42.81541428 78.50178915 42.81024551 73.54154778 C42.8065643 71.6538282 42.79937596 69.76611194 42.78853989 67.87841988 C42.77391695 65.2242906 42.77202655 62.57042316 42.77294922 59.91625977 C42.76575867 59.14445374 42.75856812 58.37264771 42.75115967 57.57745361 C42.78259916 49.16117199 44.30240416 42.04639377 49 35 C49.66 34.67 50.32 34.34 51 34 C50.731875 34.66 50.46375 35.32 50.1875 36 C49.795625 36.99 49.40375 37.98 49 39 C48.48942551 40.19085205 47.97885101 41.3817041 47.45280457 42.60864258 C45.74290511 47.20412429 45.55913509 51.39677309 45.56762695 56.26171875 C45.5574353 57.15046188 45.54724365 58.03920502 45.53674316 58.95487976 C45.50676881 61.8658186 45.49737111 64.77642753 45.48828125 67.6875 C45.47142302 69.71631958 45.45327125 71.74512879 45.43388367 73.77392578 C45.38650185 79.09373737 45.35661606 84.41350689 45.33044434 89.73345947 C45.30057912 95.17004705 45.25406929 100.60648986 45.20898438 106.04296875 C45.12308573 116.69523659 45.05568074 127.34753433 45 138 C41.22293004 138.57597584 37.54107053 139.12640091 33.71704102 139.11352539 C32.95678116 139.11344986 32.1965213 139.11337433 31.41322327 139.11329651 C30.61814865 139.10813522 29.82307404 139.10297394 29.00390625 139.09765625 C28.17036118 139.0962413 27.3368161 139.09482635 26.47801208 139.09336853 C23.83947014 139.08781168 21.20101591 139.0752674 18.5625 139.0625 C16.76367311 139.05747942 14.96484487 139.05291749 13.16601562 139.04882812 C8.77731042 139.03785643 4.38867004 139.02062196 0 139 C-1.3484429 136.30311419 -1.12716641 134.21570428 -1.12939453 131.19506836 C-1.13250641 129.96126938 -1.13561829 128.7274704 -1.13882446 127.45628357 C-1.13701569 126.08413669 -1.13500509 124.71199007 -1.1328125 123.33984375 C-1.13382897 121.90466791 -1.1351689 120.46949227 -1.1368103 119.03431702 C-1.13953056 115.14470956 -1.13500818 111.25514149 -1.12857056 107.36553955 C-1.12501119 104.94510784 -1.12338325 102.52468205 -1.12231445 100.10424805 C-1.1040509 66.73027291 -0.6387573 33.36736684 0 0 Z " fill="#810F90" transform="translate(334,464)"/>
<path d="M0 0 C14.19 0 28.38 0 43 0 C43 51.81 43 103.62 43 157 C42.67 157 42.34 157 42 157 C41.84579825 138.26710331 41.69777456 119.53416742 41.5570364 100.80116463 C41.49154136 92.10244334 41.42405092 83.4037462 41.35180664 74.70507812 C41.28881858 67.12030098 41.22963189 59.53550515 41.17494446 51.95066345 C41.14587683 47.93731691 41.11495017 43.92400474 41.07946587 39.91070938 C41.04607103 36.12692588 41.01779074 32.34313735 40.99329376 28.55928612 C40.97880972 26.52152554 40.95902764 24.48380473 40.93904114 22.4460907 C40.93200165 21.21229172 40.92496216 19.97849274 40.91770935 18.70730591 C40.90941321 17.64724398 40.90111708 16.58718204 40.89256954 15.49499702 C41.03124017 10.98367447 41.55089461 6.4910539 42 2 C29.13 2.33 16.26 2.66 3 3 C1.66546795 5.6690641 1.85998195 7.71725051 1.84178162 10.70730591 C1.8319928 11.92169342 1.82220398 13.13608093 1.81211853 14.38726807 C1.80621398 15.74011191 1.80040356 17.09295617 1.79467773 18.44580078 C1.78510161 19.86479988 1.77509169 21.2837961 1.76467896 22.70278931 C1.73759499 26.56203361 1.71660437 30.42129018 1.69667697 34.28057718 C1.67483892 38.31116897 1.64743958 42.34172277 1.62062073 46.37228394 C1.57066429 54.00787912 1.52573643 61.64349535 1.48259836 69.27913177 C1.43325117 77.97069441 1.37832372 86.66221894 1.32291877 95.35374475 C1.20905344 113.23579447 1.10222433 131.11788013 1 149 C0.67 149 0.34 149 0 149 C0 99.83 0 50.66 0 0 Z " fill="#7E03C7" transform="translate(754,395)"/>
<path d="M0 0 C14.85 0 29.7 0 45 0 C44.67 0.66 44.34 1.32 44 2 C43.84266751 4.98763355 43.74138585 7.95541151 43.68359375 10.9453125 C43.66281265 11.8303244 43.64203156 12.7153363 43.62062073 13.62716675 C43.55513402 16.45969741 43.49624438 19.29232225 43.4375 22.125 C43.39431394 24.04297857 43.35069963 25.96094754 43.30664062 27.87890625 C43.19864599 32.5858423 43.09956622 37.29284783 43 42 C54.22 42 65.44 42 77 42 C77 54.87 77 67.74 77 81 C65.78 81 54.56 81 43 81 C43.09731321 87.65315019 43.20028034 94.3057318 43.31738281 100.95849609 C43.35549144 103.21820882 43.39037475 105.47797846 43.421875 107.73779297 C43.46792123 110.99988042 43.52584814 114.26158204 43.5859375 117.5234375 C43.59748871 118.52176605 43.60903992 119.5200946 43.62094116 120.54867554 C43.79482426 128.95190917 44.2982783 136.8354717 49 144 C48.67 144.66 48.34 145.32 48 146 C41.2365493 138.56020423 41.72012529 130.84460425 41.8046875 121.28515625 C41.8075174 120.07427841 41.81034729 118.86340057 41.81326294 117.61582947 C41.8244197 113.76461732 41.84951645 109.91364136 41.875 106.0625 C41.8850356 103.44466483 41.89416044 100.82682599 41.90234375 98.20898438 C41.92263902 91.80582632 41.96179742 85.40317623 42 79 C52.89 79 63.78 79 75 79 C75 67.45 75 55.9 75 44 C64.11 44 53.22 44 42 44 C42 29.81 42 15.62 42 1 C28.14 1 14.28 1 0 1 C0 0.67 0 0.34 0 0 Z " fill="#42077C" transform="translate(841,414)"/>
<path d="M0 0 C0.33 0 0.66 0 1 0 C1 61.05 1 122.1 1 185 C3.64 185 6.28 185 9 185 C7 187 7 187 3.4375 187.1875 C0 187 0 187 -1 186 C-1.09987036 183.61161842 -1.13442407 181.25209835 -1.12698364 178.86315918 C-1.12854363 178.10755313 -1.13010362 177.35194709 -1.13171089 176.57344389 C-1.13572376 174.02225049 -1.13253014 171.4711158 -1.12939453 168.91992188 C-1.13074845 167.09875961 -1.13252832 165.27759762 -1.13470459 163.45643616 C-1.1392801 158.49583584 -1.13748888 153.53525623 -1.1343255 148.57465553 C-1.13180251 143.3954322 -1.13413927 138.2162107 -1.13571167 133.0369873 C-1.13753354 124.33764323 -1.13512659 115.63830763 -1.13037109 106.93896484 C-1.12492844 96.86595274 -1.12669108 86.79296086 -1.1321975 76.71994925 C-1.13672812 68.08813602 -1.13737943 59.4563289 -1.13475883 50.82451487 C-1.13319578 45.66181004 -1.13300306 40.49911474 -1.13629532 35.33641052 C-1.1391733 30.48395777 -1.13719969 25.63153124 -1.13140106 20.77908134 C-1.13007307 18.99278749 -1.13046824 17.20649144 -1.13266373 15.42019844 C-1.13537371 12.99238226 -1.13199599 10.56465148 -1.12698364 8.13684082 C-1.12921436 7.42061035 -1.13144509 6.70437987 -1.13374341 5.96644545 C-1.11414986 1.11414986 -1.11414986 1.11414986 0 0 Z " fill="#4E0786" transform="translate(753,416)"/>
<path d="M0 0 C0.33 0 0.66 0 1 0 C1.02464638 5.82071622 1.0428343 11.64140234 1.05493164 17.4621582 C1.05997267 19.44393441 1.06680538 21.42570689 1.07543945 23.4074707 C1.08751515 26.24952109 1.09323045 29.09152247 1.09765625 31.93359375 C1.10281754 32.82525742 1.10797882 33.71692108 1.11329651 34.63560486 C1.11349177 36.75740601 1.0621003 38.8791078 1 41 C0 42 0 42 -3.08984375 42.1328125 C-4.35957031 42.13023437 -5.62929688 42.12765625 -6.9375 42.125 C-8.83822266 42.12886719 -8.83822266 42.12886719 -10.77734375 42.1328125 C-14 42 -14 42 -16 41 C-16 52.88 -16 64.76 -16 77 C-10.39 77 -4.78 77 1 77 C1 101.75 1 126.5 1 152 C0.67 152 0.34 152 0 152 C-1.20563912 139.01946854 -1.15293321 126.04299888 -1.13037109 113.0168457 C-1.12495675 109.2826746 -1.13037186 105.54862084 -1.13671875 101.81445312 C-1.13605886 99.43489557 -1.13477956 97.05533808 -1.1328125 94.67578125 C-1.13483673 93.56229813 -1.13686096 92.448815 -1.13894653 91.30158997 C-1.13579437 90.26918686 -1.13264221 89.23678375 -1.12939453 88.1730957 C-1.12859894 87.26791702 -1.12780334 86.36273834 -1.12698364 85.43013 C-1 83 -1 83 0 79 C-5.94 79.33 -11.88 79.66 -18 80 C-18 66.8 -18 53.6 -18 40 C-12.06 40 -6.12 40 0 40 C-0.2475 36.349375 -0.2475 36.349375 -0.5 32.625 C-0.90014285 26.16555116 -1.10893751 19.72184381 -1.125 13.25 C-1.12951172 12.50057129 -1.13402344 11.75114258 -1.13867188 10.97900391 C-1.12836287 7.19473825 -0.91234961 3.67836194 0 0 Z " fill="#470483" transform="translate(841,416)"/>
<path d="M0 0 C14.52 0 29.04 0 44 0 C43.67 37.95 43.34 75.9 43 115 C42.67 115 42.34 115 42 115 C41.82848668 103.29173404 41.66198738 91.58340162 41.5 79.875 C41.48812275 79.01673489 41.4762455 78.15846977 41.46400833 77.27419662 C41.1182334 52.18218061 40.8267114 27.09485482 41 2 C40.45287354 2.03029297 39.90574707 2.06058594 39.34204102 2.09179688 C28.91053085 2.658194 18.51779457 3.14064967 8.06860352 2.96289062 C6.37916117 2.94134003 4.68923161 2.96570088 3 3 C1.09659885 4.90340115 1.82500994 8.28845786 1.79467773 10.81469727 C1.78477814 11.52685394 1.77487854 12.23901062 1.76467896 12.9727478 C1.73297788 15.33726628 1.70827276 17.70180489 1.68359375 20.06640625 C1.66303164 21.70166052 1.64203537 23.33690938 1.62062073 24.97215271 C1.56532328 29.28428786 1.51594799 33.59647158 1.46777344 37.90869141 C1.41761428 42.30570824 1.36189913 46.7026542 1.30664062 51.09960938 C1.19896527 59.73301307 1.09754129 68.3664759 1 77 C0.67 77 0.34 77 0 77 C0 51.59 0 26.18 0 0 Z " fill="#EC12D7" transform="translate(615,395)"/>
<path d="M0 0 C1.093125 0.639375 2.18625 1.27875 3.3125 1.9375 C9.01172319 4.76189379 15.23072286 5.93786738 21.48046875 4.3828125 C23.90475474 3.51724851 23.90475474 3.51724851 27 2 C29.3940233 6.78804661 28.31224297 14.04324416 28.35009766 19.36694336 C28.36668321 21.07899545 28.39400769 22.79097757 28.43212891 24.50268555 C28.48678561 26.96960386 28.50874951 29.4349023 28.5234375 31.90234375 C28.54610687 32.66804184 28.56877625 33.43373993 28.59213257 34.22264099 C28.58349609 36.38647461 28.58349609 36.38647461 28 40 C25.61132812 41.94677734 25.61132812 41.94677734 23 43 C22.23945312 43.31324219 21.47890625 43.62648438 20.6953125 43.94921875 C3.82973065 48.793588 -14.96409516 47.65594809 -30.375 39.25 C-38.34289871 34.08442547 -43.73081248 26.90477438 -47 18 C-47.61149144 14.9425428 -47.84866208 12.12765045 -48 9 C-46.40334808 11.99110775 -45.34126659 14.96154864 -44.3125 18.1875 C-40.44948793 28.77553674 -33.90664926 34.84349798 -24 40 C-17.83819687 42.77945349 -11.71044697 43.66447765 -5 44 C-4.16984375 44.05285156 -3.3396875 44.10570312 -2.484375 44.16015625 C6.65746328 44.47492014 16.31959553 42.89346816 25 40 C25 28.78 25 17.56 25 6 C24.01 6.33 23.02 6.66 22 7 C13.57827935 7.70747896 7.12904265 6.7526951 0 2 C0 1.34 0 0.68 0 0 Z " fill="#3C097C" transform="translate(890,560)"/>
<path d="M0 0 C12.54 0 25.08 0 38 0 C38 0.66 38 1.32 38 2 C37.3608667 1.99476318 36.7217334 1.98952637 36.06323242 1.98413086 C33.10466537 1.9630573 30.14611421 1.9502448 27.1875 1.9375 C26.18267578 1.92912109 25.17785156 1.92074219 24.14257812 1.91210938 C19.03949728 1.89570075 13.95650322 1.98461922 8.86328125 2.31640625 C7.5316394 2.40257202 7.5316394 2.40257202 6.1730957 2.49047852 C3.62129274 2.82765067 3.62129274 2.82765067 2 6 C1.68656275 8.96325036 1.68656275 8.96325036 1.7215271 12.39701843 C1.7157347 13.04886653 1.7099423 13.70071463 1.70397437 14.3723157 C1.68694542 16.56035344 1.68409544 18.74818061 1.68115234 20.9362793 C1.67185615 22.50320962 1.66168794 24.07013499 1.65071106 25.63705444 C1.62336215 29.89499491 1.6082472 34.15290221 1.59528303 38.41090751 C1.57967385 42.85924834 1.55287661 47.30752121 1.5272522 51.7558136 C1.48042515 60.1811468 1.44370007 68.60649273 1.41057932 77.03188974 C1.37238564 86.62311259 1.32296829 96.21426726 1.27259517 105.80543268 C1.16921694 125.5369048 1.07997572 145.26842006 1 165 C0.67 165 0.34 165 0 165 C0 110.55 0 56.1 0 0 Z " fill="#0AE2FE" transform="translate(114,395)"/>
<path d="M0 0 C1.05123047 0.00580078 2.10246094 0.01160156 3.18554688 0.01757812 C10.53358395 0.14057689 17.18059367 0.81653451 24.125 3.375 C20.83114925 4.45532261 18.72128906 4.23250346 15.375 3.4375 C-3.3487109 -0.28710916 -21.73290182 3.7019909 -37.74584961 13.84570312 C-41.51742644 16.55469949 -44.66293175 19.85090823 -47.875 23.1875 C-48.89400391 24.22680664 -48.89400391 24.22680664 -49.93359375 25.28710938 C-51.58788277 26.97634817 -53.23468286 28.67220984 -54.875 30.375 C-55.46777344 28.51855469 -55.46777344 28.51855469 -55.875 26.375 C-50.27236994 17.70566717 -38.84573354 7.74108046 -28.76953125 4.75 C-27.73892578 4.564375 -27.73892578 4.564375 -26.6875 4.375 C-23.44629244 3.75993676 -20.43279055 2.90896863 -17.31640625 1.8359375 C-11.51001979 0.07444344 -6.03358996 -0.0806527 0 0 Z " fill="#D610BD" transform="translate(567.875,453.625)"/>
<path d="M0 0 C0.33 0 0.66 0 1 0 C1 21.45 1 42.9 1 65 C16.18 65 31.36 65 47 65 C47 65.33 47 65.66 47 66 C31.49 66.33 15.98 66.66 0 67 C-1.01139443 63.96581671 -1.12671788 61.92687415 -1.12939453 58.75341797 C-1.13254669 57.68155243 -1.13569885 56.60968689 -1.13894653 55.50534058 C-1.1369223 54.34600006 -1.13489807 53.18665955 -1.1328125 51.9921875 C-1.13376923 50.79699493 -1.13472595 49.60180237 -1.13571167 48.37039185 C-1.13639292 45.83677111 -1.13454245 43.30314864 -1.13037109 40.76953125 C-1.12505023 36.91141777 -1.13030337 33.05342221 -1.13671875 29.1953125 C-1.13605741 26.73177058 -1.13477509 24.26822873 -1.1328125 21.8046875 C-1.13483673 20.65749237 -1.13686096 19.51029724 -1.13894653 18.32833862 C-1.1210479 12.13466877 -0.81615182 6.14099536 0 0 Z " fill="#0983CB" transform="translate(113,536)"/>
<path d="M0 0 C3.1412162 1.44924293 5.73885895 3.23704231 8.5 5.3125 C19.69100003 13.23533188 31.43547327 16.44882625 45 16 C45 16.33 45 16.66 45 17 C56.68769122 17.72711443 67.50354445 15.23782031 77.890625 9.890625 C78.58671875 9.59671875 79.2828125 9.3028125 80 9 C80.99 9.495 80.99 9.495 82 10 C66.69181921 19.47941456 49.01641743 21.64746036 31.45703125 17.81762695 C19.69678021 14.8761425 9.18393017 10.04704132 0 2 C0 1.34 0 0.68 0 0 Z " fill="#750A8D" transform="translate(521,587)"/>
<path d="M0 0 C0.33 0 0.66 0 1 0 C2.15072293 13.83462157 2.11596035 27.62653486 2.0625 41.5 C2.05747231 43.78775943 2.05291166 46.07551994 2.04882812 48.36328125 C2.03792916 53.90887807 2.0212927 59.45443384 2 65 C-0.81693511 66.40846755 -3.18079996 66.12976867 -6.328125 66.1328125 C-7.60300781 66.13410156 -8.87789062 66.13539063 -10.19140625 66.13671875 C-10.8580127 66.13462402 -11.52461914 66.1325293 -12.21142578 66.13037109 C-14.22826798 66.12505726 -16.24488382 66.13030043 -18.26171875 66.13671875 C-19.54175781 66.13542969 -20.82179688 66.13414062 -22.140625 66.1328125 C-23.89681152 66.13112061 -23.89681152 66.13112061 -25.68847656 66.12939453 C-28.87665407 66.00481962 -31.86945973 65.598643 -35 65 C-35 64.67 -35 64.34 -35 64 C-23.45 64 -11.9 64 0 64 C0 42.88 0 21.76 0 0 Z " fill="#300469" transform="translate(797,537)"/>
<path d="M0 0 C12.87 0 25.74 0 39 0 C39 12.87 39 25.74 39 39 C38.67 39 38.34 39 38 39 C38 26.79 38 14.58 38 2 C28.44198536 2.36721173 28.44198536 2.36721173 18.88452148 2.74829102 C17.68384033 2.79139404 16.48315918 2.83449707 15.24609375 2.87890625 C14.02591553 2.9260376 12.8057373 2.97316895 11.54858398 3.02172852 C7.91621866 2.99948699 4.56020509 2.72422795 1 2 C0.67 1.34 0.34 0.68 0 0 Z " fill="#0ADFFE" transform="translate(200,395)"/>
<path d="M0 0 C0.33 0 0.66 0 1 0 C1 17.16 1 34.32 1 52 C14.86 51.67 28.72 51.34 43 51 C43 51.99 43 52.98 43 54 C21.22 53.505 21.22 53.505 -1 53 C-0.67 35.51 -0.34 18.02 0 0 Z " fill="#098DD8" transform="translate(265,549)"/>
<path d="M0 0 C14.19 0 28.38 0 43 0 C43.495 0.99 43.495 0.99 44 2 C29.48 2.33 14.96 2.66 0 3 C0 2.01 0 1.02 0 0 Z " fill="#19A9E2" transform="translate(265,456)"/>
<path d="M0 0 C0.33 0 0.66 0 1 0 C1.20638953 43.00840213 1.20638953 43.00840213 0 63 C-0.33 63 -0.66 63 -1 63 C-1.90570419 56.10381142 -2.1222984 49.38791455 -2.0625 42.4375 C-2.05798828 41.42880859 -2.05347656 40.42011719 -2.04882812 39.38085938 C-2.03716769 36.92050853 -2.02080378 34.46028761 -2 32 C-1.67 32 -1.34 32 -1 32 C-0.67 21.44 -0.34 10.88 0 0 Z " fill="#B108BD" transform="translate(658,503)"/>
<path d="M0 0 C1.3288623 0.00737183 1.3288623 0.00737183 2.68457031 0.01489258 C26.85283369 0.43764207 26.85283369 0.43764207 34.75 8.3125 C35.9453125 10.47265625 35.9453125 10.47265625 36.75 12.3125 C32.84833308 10.84937491 29.20448511 9.04773694 25.51953125 7.1171875 C23.77055145 6.17451522 23.77055145 6.17451522 21.75 6.3125 C21.75 5.6525 21.75 4.9925 21.75 4.3125 C10.11302275 1.85336518 -1.41581885 2.10535801 -13.25 2.3125 C-8.81178494 -0.19413102 -4.9956477 -0.03238441 0 0 Z " fill="#E215C6" transform="translate(419.25,453.6875)"/>
<path d="M0 0 C13.2 0 26.4 0 40 0 C40 0.66 40 1.32 40 2 C38.85934082 2.01981934 37.71868164 2.03963867 36.54345703 2.06005859 C32.32024677 2.13600567 28.09738601 2.22473928 23.87451172 2.31738281 C22.04515471 2.35571777 20.21572115 2.39056263 18.38623047 2.421875 C15.75981241 2.46742805 13.13392341 2.52543731 10.5078125 2.5859375 C9.27649094 2.60326431 9.27649094 2.60326431 8.02029419 2.62094116 C3.5375356 2.5572544 3.5375356 2.5572544 0 5 C0 3.35 0 1.7 0 0 Z " fill="#7D05B7" transform="translate(755,395)"/>
<path d="M0 0 C0.33 4.95 0.66 9.9 1 15 C8.59 15.33 16.18 15.66 24 16 C24 16.33 24 16.66 24 17 C15.75 17 7.5 17 -1 17 C-1 12.05 -1 7.1 -1 2 C-5.71322287 5.78318454 -5.71322287 5.78318454 -9.625 10.3125 C-11.49524509 12.60780079 -13.13213016 12.68996002 -16 13 C-16 12.34 -16 11.68 -16 11 C-14.68441297 9.97676564 -13.34631825 8.98244845 -12 8 C-11.175 7.175 -10.35 6.35 -9.5 5.5 C-4 0 -4 0 0 0 Z " fill="#B104CC" transform="translate(616,584)"/>
<path d="M0 0 C7.0873755 5.83666218 11.19037233 15.0960585 12.83203125 24.01953125 C13.0685149 26.80783843 12.69201577 29.3011385 12 32 C11.67 32 11.34 32 11 32 C10.34 27.05 9.68 22.1 9 17 C8.34 17 7.68 17 7 17 C6.01330241 15.10807525 5.0359398 13.21128022 4.0625 11.3125 C3.51722656 10.25675781 2.97195313 9.20101563 2.41015625 8.11328125 C1.1529424 5.33765953 0.43930431 2.99727874 0 0 Z " fill="#BB11AC" transform="translate(463,471)"/>
<path d="M0 0 C-3.29385075 1.08032261 -5.40371094 0.85750346 -8.75 0.0625 C-19.69952884 -2.11563208 -32.22773718 -2.20744757 -42.8125 1.5 C-43.93591797 1.88671875 -43.93591797 1.88671875 -45.08203125 2.28125 C-47.04364785 2.97811277 -47.04364785 2.97811277 -49 4 C-49.66 3.34 -50.32 2.68 -51 2 C-49.25093469 1.35163958 -47.50070781 0.70641216 -45.75 0.0625 C-44.77546875 -0.29714844 -43.8009375 -0.65679687 -42.796875 -1.02734375 C-30.03881581 -5.46415484 -12.63346132 -4.65443312 0 0 Z " fill="#F111D4" transform="translate(592,457)"/>
<path d="M0 0 C3.88110697 3.53982822 5.63780887 7.97799062 6.25643921 13.13964844 C6.34394443 15.39136052 6.33838758 17.62210808 6.29296875 19.875 C6.28872391 20.68493408 6.28447906 21.49486816 6.28010559 22.3293457 C6.26346944 24.88658561 6.22584772 27.44300304 6.1875 30 C6.1724336 31.74608227 6.15874864 33.49217705 6.14648438 35.23828125 C6.11361566 39.49249875 6.0619406 43.7461105 6 48 C5.67 48 5.34 48 5 48 C4.67 39.75 4.34 31.5 4 23 C3.67 23 3.34 23 3 23 C3.03480469 22.09378906 3.06960938 21.18757812 3.10546875 20.25390625 C3.27204671 12.75789787 2.87210443 6.94091903 0 0 Z " fill="#DF0DCF" transform="translate(427,501)"/>
<path d="M0 0 C3.1412162 1.44924293 5.73885895 3.23704231 8.5 5.3125 C17.83287706 11.88514109 27.90139548 14.79818007 39 17 C39 17.33 39 17.66 39 18 C33.69999978 18.25303227 29.3887222 17.45615563 24.4375 15.6875 C23.80392578 15.47416016 23.17035156 15.26082031 22.51757812 15.04101562 C16.08470523 12.82164135 10.62661628 9.92579906 5.125 5.9375 C4.15820312 5.24527344 3.19140625 4.55304687 2.1953125 3.83984375 C1.47085938 3.23269531 0.74640625 2.62554688 0 2 C0 1.34 0 0.68 0 0 Z " fill="#770B8B" transform="translate(521,587)"/>
<path d="M0 0 C5.20824706 1.46481949 9.51460171 4.93641648 13 9 C13.66796875 11.57421875 13.66796875 11.57421875 14 14 C14.350625 14.825 14.70125 15.65 15.0625 16.5 C16.06664944 19.17773183 16.16195541 21.16578026 16 24 C14.21453413 21.32180119 13.35060715 19.30469118 12.3125 16.3125 C9.67434679 9.52867747 5.07506192 5.04421048 0 0 Z " fill="#BE0EAE" transform="translate(415,491)"/>
<path d="M0 0 C20.295 0.495 20.295 0.495 41 1 C41 1.33 41 1.66 41 2 C29.69882307 2.59288999 18.42539107 3.15879078 7.10571289 2.96289062 C3.43050878 2.85408324 3.43050878 2.85408324 0 4 C0 2.68 0 1.36 0 0 Z " fill="#F311D3" transform="translate(616,395)"/>
<path d="M0 0 C7.26 0 14.52 0 22 0 C22 0.66 22 1.32 22 2 C7.40318907 3.33257403 7.40318907 3.33257403 0 2 C0 1.34 0 0.68 0 0 Z " fill="#0ADBFF" transform="translate(170,395)"/>
<path d="M0 0 C-3.43973031 1.71986515 -7.38871118 0.99404059 -11.1640625 0.87890625 C-12.07127045 0.85529526 -12.97847839 0.83168427 -13.91317749 0.80735779 C-16.81727451 0.73064479 -19.72110997 0.64665335 -22.625 0.5625 C-24.59113294 0.50928696 -26.55727873 0.45654651 -28.5234375 0.40429688 C-33.34912468 0.27501931 -38.17458962 0.13921274 -43 0 C-43 -0.33 -43 -0.66 -43 -1 C-37.19792216 -1.19206145 -31.39564709 -1.37081576 -25.59277344 -1.53710938 C-23.61772602 -1.59560041 -21.64278382 -1.65776216 -19.66796875 -1.72363281 C-16.83352819 -1.817545 -13.99897447 -1.89835955 -11.1640625 -1.9765625 C-10.27756012 -2.00875885 -9.39105774 -2.0409552 -8.47769165 -2.0741272 C-2.22774341 -2.22774341 -2.22774341 -2.22774341 0 0 Z " fill="#106FBC" transform="translate(309,602)"/>
<path d="M0 0 C0.33 0 0.66 0 1 0 C1 9.57 1 19.14 1 29 C2.98 29 4.96 29 7 29 C7 29.33 7 29.66 7 30 C4.69 30.33 2.38 30.66 0 31 C-1.04630361 27.86108918 -1.12914394 25.63706954 -1.1328125 22.34375 C-1.13410156 21.23902344 -1.13539062 20.13429688 -1.13671875 18.99609375 C-1.13285156 17.84238281 -1.12898438 16.68867187 -1.125 15.5 C-1.12886719 14.34628906 -1.13273437 13.19257812 -1.13671875 12.00390625 C-1.13542969 10.89917969 -1.13414063 9.79445313 -1.1328125 8.65625 C-1.13168457 7.64369141 -1.13055664 6.63113281 -1.12939453 5.58789062 C-1 3 -1 3 0 0 Z " fill="#0A85CF" transform="translate(113,572)"/>
<path d="M0 0 C0 0.66 0 1.32 0 2 C-1.42578125 3.3671875 -1.42578125 3.3671875 -3.3125 4.875 C-5.46428534 6.63868778 -7.0154706 8.02201586 -8.625 10.3125 C-10.49524509 12.60780079 -12.13213016 12.68996002 -15 13 C-15 12.34 -15 11.68 -15 11 C-13.68441297 9.97676564 -12.34631825 8.98244845 -11 8 C-10.175 7.175 -9.35 6.35 -8.5 5.5 C-3 0 -3 0 0 0 Z " fill="#9F05B8" transform="translate(615,584)"/>
<path d="M0 0 C2.625 -0.1875 2.625 -0.1875 5 0 C5 0.33 5 0.66 5 1 C9.29 1 13.58 1 18 1 C18 1.66 18 2.32 18 3 C11.4 3 4.8 3 -2 3 C-1.34 2.01 -0.68 1.02 0 0 Z " fill="#860A9D" transform="translate(561,603)"/>
<path d="M0 0 C0 3.34246683 -0.49628267 4.07121337 -2.3125 6.75 C-4.68474934 10.38924615 -6.40290575 13.96523559 -8 18 C-9 15 -9 15 -7.63671875 11.6796875 C-6.99732252 10.40621225 -6.34712669 9.13811495 -5.6875 7.875 C-5.20506836 6.90626953 -5.20506836 6.90626953 -4.71289062 5.91796875 C-2.27170567 1.13585283 -2.27170567 1.13585283 0 0 Z " fill="#E80DD3" transform="translate(511,486)"/>
<path d="M0 0 C0.66 0.33 1.32 0.66 2 1 C0.92807816 2.3218362 -0.15802695 3.63217927 -1.25 4.9375 C-1.85328125 5.66839844 -2.4565625 6.39929688 -3.078125 7.15234375 C-5.10741134 9.10326334 -6.254407 9.61731779 -9 10 C-7.61811547 6.78956118 -6.07578097 4.95063635 -3.375 2.75 C-2.74335937 2.22921875 -2.11171875 1.7084375 -1.4609375 1.171875 C-0.73777344 0.59179688 -0.73777344 0.59179688 0 0 Z " fill="#BF11AD" transform="translate(526,466)"/>
<path d="M0 0 C1.63001953 0.15275391 1.63001953 0.15275391 3.29296875 0.30859375 C4.54013672 0.43427734 4.54013672 0.43427734 5.8125 0.5625 C5.8125 0.8925 5.8125 1.2225 5.8125 1.5625 C4.06431409 1.78554441 2.31379677 1.9903645 0.5625 2.1875 C-0.41203125 2.30351562 -1.3865625 2.41953125 -2.390625 2.5390625 C-5.32179393 2.56362537 -6.73278964 2.0937717 -9.1875 0.5625 C-5.76060364 -0.57979879 -3.57647782 -0.34611076 0 0 Z " fill="#B90EA7" transform="translate(402.1875,489.4375)"/>
<path d="M0 0 C2.86867231 1.38264837 5.56024032 2.92148553 8.25 4.625 C8.95640625 5.07101562 9.6628125 5.51703125 10.390625 5.9765625 C10.92171875 6.31429688 11.4528125 6.65203125 12 7 C11.01 7.33 10.02 7.66 9 8 C6.73828125 6.85546875 6.73828125 6.85546875 4.3125 5.1875 C3.50425781 4.64480469 2.69601562 4.10210937 1.86328125 3.54296875 C1.24839844 3.03378906 0.63351562 2.52460938 0 2 C0 1.34 0 0.68 0 0 Z " fill="#0CA4E2" transform="translate(268,432)"/>
<path d="M0 0 C1.65 1.65 3.3 3.3 5 5 C4.67 5.66 4.34 6.32 4 7 C3.34 7 2.68 7 2 7 C0 4 0 4 0 0 Z " fill="#C20FAD" transform="translate(463,471)"/>
<path d="M0 0 C4 1 4 1 4 1 Z " fill="#CF1AC2" transform="translate(578,492)"/>
<path d="M0 0 C3 1 3 1 3 1 Z " fill="#14D7FA" transform="translate(210,480)"/>
<path d="M0 0 C3 1 3 1 3 1 Z " fill="#15D6FA" transform="translate(200,480)"/>
<path d="M0 0 C3 1 3 1 3 1 Z " fill="#13D6FA" transform="translate(196,480)"/>
<path d="M0 0 C3 1 3 1 3 1 Z " fill="#20D5F4" transform="translate(152,392)"/>
<path d="M0 0 C2 1 2 1 2 1 Z " fill="#14D6FB" transform="translate(193,480)"/>
<path d="M0 0 C2 1 2 1 2 1 Z " fill="#16D9FB" transform="translate(185,480)"/>
<path d="M0 0 C2 1 2 1 2 1 Z " fill="#15D8F9" transform="translate(181,480)"/>
<path d="M0 0 C2 1 2 1 2 1 Z " fill="#31C5F0" transform="translate(300,438)"/>
<path d="" fill="#28CFF3" transform="translate(0,0)"/>
<path d="M0 0 C2 1 2 1 2 1 Z " fill="#2DCCEF" transform="translate(290,392)"/>
<path d="M0 0 C2 1 2 1 2 1 Z " fill="#1ED4F4" transform="translate(165,392)"/>
<path d="M0 0 C2 1 2 1 2 1 Z " fill="#1ED4F4" transform="translate(149,392)"/>
<path d="" fill="#727372" transform="translate(0,0)"/>
<path d="" fill="#29B4E5" transform="translate(0,0)"/>
<path d="" fill="#4292DA" transform="translate(0,0)"/>
<path d="" fill="#AE1CBA" transform="translate(0,0)"/>
<path d="" fill="#AF1ABA" transform="translate(0,0)"/>
<path d="" fill="#5D10A9" transform="translate(0,0)"/>
<path d="" fill="#B219BB" transform="translate(0,0)"/>
<path d="" fill="#5E1EA5" transform="translate(0,0)"/>
<path d="" fill="#5A1DA4" transform="translate(0,0)"/>
<path d="" fill="#5D19A6" transform="translate(0,0)"/>
<path d="" fill="#B919BD" transform="translate(0,0)"/>
<path d="" fill="#C516BD" transform="translate(0,0)"/>
<path d="" fill="#D720C3" transform="translate(0,0)"/>
<path d="" fill="#D329C1" transform="translate(0,0)"/>
<path d="" fill="#D629C1" transform="translate(0,0)"/>
<path d="" fill="#13D5F7" transform="translate(0,0)"/>
<path d="" fill="#13D3F9" transform="translate(0,0)"/>
<path d="" fill="#16D7F8" transform="translate(0,0)"/>
<path d="" fill="#16D7F8" transform="translate(0,0)"/>
<path d="" fill="#14D9FB" transform="translate(0,0)"/>
<path d="" fill="#11D8FD" transform="translate(0,0)"/>
<path d="" fill="#15D8FC" transform="translate(0,0)"/>
<path d="" fill="#14DAF8" transform="translate(0,0)"/>
<path d="" fill="#17D9FB" transform="translate(0,0)"/>
<path d="" fill="#DD1BC5" transform="translate(0,0)"/>
<path d="" fill="#D823C5" transform="translate(0,0)"/>
<path d="" fill="#2DC1EE" transform="translate(0,0)"/>
<path d="" fill="#7420A6" transform="translate(0,0)"/>
<path d="" fill="#7720A8" transform="translate(0,0)"/>
<path d="" fill="#25D6F6" transform="translate(0,0)"/>
<path d="" fill="#27D0F4" transform="translate(0,0)"/>
<path d="" fill="#29C8EF" transform="translate(0,0)"/>
<path d="" fill="#761DA2" transform="translate(0,0)"/>
<path d="" fill="#7C1DA8" transform="translate(0,0)"/>
<path d="" fill="#2AD0EF" transform="translate(0,0)"/>
<path d="" fill="#29D0F3" transform="translate(0,0)"/>
<path d="" fill="#21D1F3" transform="translate(0,0)"/>
<path d="" fill="#1ED6F5" transform="translate(0,0)"/>
<path d="" fill="#20D8F7" transform="translate(0,0)"/>
<path d="" fill="#1FD3F2" transform="translate(0,0)"/>
<path d="" fill="#1DD1F7" transform="translate(0,0)"/>
<path d="" fill="#23D5F5" transform="translate(0,0)"/>
<path d="" fill="#1DD2F3" transform="translate(0,0)"/>
<path d="" fill="#20D7F7" transform="translate(0,0)"/>
<path d="" fill="#1DD3F5" transform="translate(0,0)"/>
<path d="" fill="#1CD5F2" transform="translate(0,0)"/>
<path d="" fill="#1FD6F6" transform="translate(0,0)"/>
<path d="" fill="#1CD2F4" transform="translate(0,0)"/>
<path d="" fill="#1FD4F2" transform="translate(0,0)"/>
<path d="" fill="#1FD3F2" transform="translate(0,0)"/>
<path d="" fill="#2AC2E1" transform="translate(0,0)"/>
</svg>
